# xmcd CD database file
#
# Track frame offsets:
#	150
#	19410
#	39445
#	57357
#	78022
#	95410
#	110881
#	130150
#	146255
#	161940
#	181910
#	200921
#
# Disc length: 2856 seconds
#
# Revision: 11
# Processed by: cddbd v1.5.2PL0 Copyright (c) Steve Scherf et al.
# Submitted via: CDex 1.70beta2
#
DISCID=a70b260c
DTITLE=Dion, Celine - D'eux
DYEAR=1995
DGENRE=Vocal
TTITLE0=Pour Que Tu M'aimes Encore
TTITLE1=Le Ballet
TTITLE2=Regarde_Moi
TTITLE3=Je Sais Pas
TTITLE4=La Mémoire D'Abraham
TTITLE5=Cherche Encore
TTITLE6=Destin
TTITLE7=Les Derniers Seront Les Premiers
TTITLE8=J'irai Où Tu Iras
TTITLE9=J'attendais
TTITLE10=Prière Païenne
TTITLE11=Vole
EXTD=CD US 1995 (550 Music/Epic BK 67107) UPC 0074646710722 YEAR: 1995
EXTT0=
EXTT1=
EXTT2=
EXTT3=
EXTT4=
EXTT5=
EXTT6=
EXTT7=
EXTT8=
EXTT9=
EXTT10=
EXTT11=
PLAYORDER=
